<mxfile host="app.diagrams.net" modified="2023-09-07T18:22:20.988Z" agent="Mozilla/5.0 (Windows NT 10.0; Win64; x64) AppleWebKit/537.36 (KHTML, like Gecko) Chrome/116.0.0.0 Safari/537.36 Edg/116.0.1938.69" etag="QKcD--qXd0oB0dcSuoZr" version="21.7.2" type="device">
  <diagram name="Page-1" id="2qnTqV1DTdleZbJUyn2O">
    <mxGraphModel dx="2720" dy="1860" grid="1" gridSize="10" guides="1" tooltips="1" connect="1" arrows="1" fold="1" page="1" pageScale="1" pageWidth="1000" pageHeight="1000" math="0" shadow="0">
      <root>
        <mxCell id="0" />
        <mxCell id="1" parent="0" />
        <mxCell id="3oSIHU47qyLx5KesuJEi-9" value="vvvv" style="edgeStyle=orthogonalEdgeStyle;rounded=0;orthogonalLoop=1;jettySize=auto;html=1;" edge="1" parent="1" source="WO_Ns-M6iDG5HoQ3W8E0-1" target="3oSIHU47qyLx5KesuJEi-8">
          <mxGeometry relative="1" as="geometry" />
        </mxCell>
        <mxCell id="WO_Ns-M6iDG5HoQ3W8E0-1" value="START" style="strokeWidth=1;html=1;shape=mxgraph.flowchart.start_2;whiteSpace=wrap;fillColor=#fff2cc;strokeColor=#d6b656;" parent="1" vertex="1">
          <mxGeometry x="360" width="80" height="80" as="geometry" />
        </mxCell>
        <mxCell id="3oSIHU47qyLx5KesuJEi-11" value="" style="edgeStyle=orthogonalEdgeStyle;rounded=0;orthogonalLoop=1;jettySize=auto;html=1;" edge="1" parent="1" source="WO_Ns-M6iDG5HoQ3W8E0-2" target="WO_Ns-M6iDG5HoQ3W8E0-9">
          <mxGeometry relative="1" as="geometry" />
        </mxCell>
        <mxCell id="WO_Ns-M6iDG5HoQ3W8E0-2" value="initialize variables" style="rounded=1;whiteSpace=wrap;html=1;absoluteArcSize=1;arcSize=14;strokeWidth=1;fillColor=#dae8fc;strokeColor=#6c8ebf;" parent="1" vertex="1">
          <mxGeometry x="280" y="200" width="240" height="40" as="geometry" />
        </mxCell>
        <mxCell id="WO_Ns-M6iDG5HoQ3W8E0-16" value="" style="edgeStyle=orthogonalEdgeStyle;rounded=0;orthogonalLoop=1;jettySize=auto;html=1;strokeColor=#009900;" parent="1" source="WO_Ns-M6iDG5HoQ3W8E0-9" target="WO_Ns-M6iDG5HoQ3W8E0-15" edge="1">
          <mxGeometry relative="1" as="geometry" />
        </mxCell>
        <mxCell id="WO_Ns-M6iDG5HoQ3W8E0-68" value="yes" style="edgeLabel;html=1;align=center;verticalAlign=middle;resizable=0;points=[];fontColor=#009900;" parent="WO_Ns-M6iDG5HoQ3W8E0-16" vertex="1" connectable="0">
          <mxGeometry x="-0.3786" y="-1" relative="1" as="geometry">
            <mxPoint x="3" y="-2" as="offset" />
          </mxGeometry>
        </mxCell>
        <mxCell id="3oSIHU47qyLx5KesuJEi-4" value="" style="edgeStyle=orthogonalEdgeStyle;rounded=0;orthogonalLoop=1;jettySize=auto;html=1;strokeColor=#FF0000;" edge="1" parent="1" source="WO_Ns-M6iDG5HoQ3W8E0-9" target="WO_Ns-M6iDG5HoQ3W8E0-18">
          <mxGeometry relative="1" as="geometry" />
        </mxCell>
        <mxCell id="3oSIHU47qyLx5KesuJEi-6" value="no" style="edgeLabel;html=1;align=center;verticalAlign=middle;resizable=0;points=[];fontColor=#FF0000;" vertex="1" connectable="0" parent="3oSIHU47qyLx5KesuJEi-4">
          <mxGeometry x="-0.4856" relative="1" as="geometry">
            <mxPoint y="6" as="offset" />
          </mxGeometry>
        </mxCell>
        <mxCell id="WO_Ns-M6iDG5HoQ3W8E0-9" value="is&lt;br&gt;argc&lt;br&gt;!= 2&lt;br&gt;?" style="rhombus;whiteSpace=wrap;html=1;fillColor=#ffe6cc;strokeColor=#d79b00;" parent="1" vertex="1">
          <mxGeometry x="360" y="280" width="80" height="80" as="geometry" />
        </mxCell>
        <mxCell id="WO_Ns-M6iDG5HoQ3W8E0-12" value="END" style="rounded=1;whiteSpace=wrap;html=1;absoluteArcSize=1;arcSize=119;strokeWidth=1;fillColor=#fff2cc;strokeColor=#d6b656;" parent="1" vertex="1">
          <mxGeometry x="840" y="300" width="120" height="40" as="geometry" />
        </mxCell>
        <mxCell id="WO_Ns-M6iDG5HoQ3W8E0-17" value="" style="edgeStyle=orthogonalEdgeStyle;rounded=0;orthogonalLoop=1;jettySize=auto;html=1;" parent="1" source="WO_Ns-M6iDG5HoQ3W8E0-15" target="WO_Ns-M6iDG5HoQ3W8E0-12" edge="1">
          <mxGeometry relative="1" as="geometry" />
        </mxCell>
        <mxCell id="WO_Ns-M6iDG5HoQ3W8E0-15" value="Error message: &quot;USAGE: monty file&quot;" style="rounded=1;whiteSpace=wrap;html=1;absoluteArcSize=1;arcSize=14;strokeWidth=1;fillColor=#dae8fc;strokeColor=#6c8ebf;" parent="1" vertex="1">
          <mxGeometry x="520" y="300" width="240" height="40" as="geometry" />
        </mxCell>
        <mxCell id="3oSIHU47qyLx5KesuJEi-5" value="" style="edgeStyle=orthogonalEdgeStyle;rounded=0;orthogonalLoop=1;jettySize=auto;html=1;" edge="1" parent="1" source="WO_Ns-M6iDG5HoQ3W8E0-18" target="WO_Ns-M6iDG5HoQ3W8E0-20">
          <mxGeometry relative="1" as="geometry" />
        </mxCell>
        <mxCell id="WO_Ns-M6iDG5HoQ3W8E0-18" value="open file (path == argv[1])" style="rounded=1;whiteSpace=wrap;html=1;absoluteArcSize=1;arcSize=14;strokeWidth=1;fillColor=#dae8fc;strokeColor=#6c8ebf;" parent="1" vertex="1">
          <mxGeometry x="280" y="400" width="240" height="40" as="geometry" />
        </mxCell>
        <mxCell id="3oSIHU47qyLx5KesuJEi-14" value="" style="edgeStyle=orthogonalEdgeStyle;rounded=0;orthogonalLoop=1;jettySize=auto;html=1;strokeColor=#009900;" edge="1" parent="1" source="WO_Ns-M6iDG5HoQ3W8E0-20" target="3oSIHU47qyLx5KesuJEi-13">
          <mxGeometry relative="1" as="geometry" />
        </mxCell>
        <mxCell id="3oSIHU47qyLx5KesuJEi-34" value="yes" style="edgeLabel;html=1;align=center;verticalAlign=middle;resizable=0;points=[];fontColor=#009900;" vertex="1" connectable="0" parent="3oSIHU47qyLx5KesuJEi-14">
          <mxGeometry x="-0.137" y="1" relative="1" as="geometry">
            <mxPoint as="offset" />
          </mxGeometry>
        </mxCell>
        <mxCell id="3oSIHU47qyLx5KesuJEi-35" value="" style="edgeStyle=orthogonalEdgeStyle;rounded=0;orthogonalLoop=1;jettySize=auto;html=1;strokeColor=#FF0000;" edge="1" parent="1" source="WO_Ns-M6iDG5HoQ3W8E0-20" target="WO_Ns-M6iDG5HoQ3W8E0-25">
          <mxGeometry relative="1" as="geometry" />
        </mxCell>
        <mxCell id="3oSIHU47qyLx5KesuJEi-37" value="no" style="edgeLabel;html=1;align=center;verticalAlign=middle;resizable=0;points=[];fontColor=#FF0000;" vertex="1" connectable="0" parent="3oSIHU47qyLx5KesuJEi-35">
          <mxGeometry x="-0.2736" y="1" relative="1" as="geometry">
            <mxPoint x="-1" as="offset" />
          </mxGeometry>
        </mxCell>
        <mxCell id="WO_Ns-M6iDG5HoQ3W8E0-20" value="is&lt;br&gt;file ==&lt;br&gt;NULL&lt;br&gt;?" style="rhombus;whiteSpace=wrap;html=1;fillColor=#ffe6cc;strokeColor=#d79b00;" parent="1" vertex="1">
          <mxGeometry x="360" y="480" width="80" height="80" as="geometry" />
        </mxCell>
        <mxCell id="3oSIHU47qyLx5KesuJEi-36" value="" style="edgeStyle=orthogonalEdgeStyle;rounded=0;orthogonalLoop=1;jettySize=auto;html=1;" edge="1" parent="1" source="WO_Ns-M6iDG5HoQ3W8E0-25" target="WO_Ns-M6iDG5HoQ3W8E0-31">
          <mxGeometry relative="1" as="geometry" />
        </mxCell>
        <mxCell id="WO_Ns-M6iDG5HoQ3W8E0-25" value="getline (char *line)" style="rounded=1;whiteSpace=wrap;html=1;absoluteArcSize=1;arcSize=14;strokeWidth=1;fillColor=#dae8fc;strokeColor=#6c8ebf;" parent="1" vertex="1">
          <mxGeometry x="280" y="600" width="240" height="40" as="geometry" />
        </mxCell>
        <mxCell id="3oSIHU47qyLx5KesuJEi-16" value="" style="edgeStyle=orthogonalEdgeStyle;rounded=0;orthogonalLoop=1;jettySize=auto;html=1;" edge="1" parent="1" source="WO_Ns-M6iDG5HoQ3W8E0-31" target="WO_Ns-M6iDG5HoQ3W8E0-33">
          <mxGeometry relative="1" as="geometry" />
        </mxCell>
        <mxCell id="WO_Ns-M6iDG5HoQ3W8E0-31" value="strtok line (char *opcode)" style="rounded=1;whiteSpace=wrap;html=1;absoluteArcSize=1;arcSize=14;strokeWidth=1;fillColor=#dae8fc;strokeColor=#6c8ebf;" parent="1" vertex="1">
          <mxGeometry x="280" y="680" width="240" height="40" as="geometry" />
        </mxCell>
        <mxCell id="3oSIHU47qyLx5KesuJEi-17" value="" style="edgeStyle=orthogonalEdgeStyle;rounded=0;orthogonalLoop=1;jettySize=auto;html=1;strokeColor=#FF0000;" edge="1" parent="1" source="WO_Ns-M6iDG5HoQ3W8E0-33" target="WO_Ns-M6iDG5HoQ3W8E0-45">
          <mxGeometry relative="1" as="geometry" />
        </mxCell>
        <mxCell id="3oSIHU47qyLx5KesuJEi-38" value="no" style="edgeLabel;html=1;align=center;verticalAlign=middle;resizable=0;points=[];fontColor=#FF0000;" vertex="1" connectable="0" parent="3oSIHU47qyLx5KesuJEi-17">
          <mxGeometry x="-0.3411" relative="1" as="geometry">
            <mxPoint x="-1" y="2" as="offset" />
          </mxGeometry>
        </mxCell>
        <mxCell id="3oSIHU47qyLx5KesuJEi-20" style="edgeStyle=orthogonalEdgeStyle;rounded=0;orthogonalLoop=1;jettySize=auto;html=1;entryX=0.5;entryY=0;entryDx=0;entryDy=0;strokeColor=#009900;" edge="1" parent="1" source="WO_Ns-M6iDG5HoQ3W8E0-33" target="WO_Ns-M6iDG5HoQ3W8E0-80">
          <mxGeometry relative="1" as="geometry">
            <mxPoint x="450" y="1130" as="targetPoint" />
            <Array as="points">
              <mxPoint x="600" y="800" />
              <mxPoint x="600" y="1120" />
            </Array>
          </mxGeometry>
        </mxCell>
        <mxCell id="3oSIHU47qyLx5KesuJEi-39" value="yes" style="edgeLabel;html=1;align=center;verticalAlign=middle;resizable=0;points=[];fontColor=#009900;" vertex="1" connectable="0" parent="3oSIHU47qyLx5KesuJEi-20">
          <mxGeometry x="-0.7456" y="2" relative="1" as="geometry">
            <mxPoint x="-11" y="1" as="offset" />
          </mxGeometry>
        </mxCell>
        <mxCell id="WO_Ns-M6iDG5HoQ3W8E0-33" value="is&lt;br&gt;opcode&lt;br&gt;== NULL&lt;br&gt;?" style="rhombus;whiteSpace=wrap;html=1;fillColor=#ffe6cc;strokeColor=#d79b00;" parent="1" vertex="1">
          <mxGeometry x="360" y="760" width="80" height="80" as="geometry" />
        </mxCell>
        <mxCell id="3oSIHU47qyLx5KesuJEi-18" value="" style="edgeStyle=orthogonalEdgeStyle;rounded=0;orthogonalLoop=1;jettySize=auto;html=1;exitX=0.5;exitY=1;exitDx=0;exitDy=0;exitPerimeter=0;strokeColor=#009900;" edge="1" parent="1" source="WO_Ns-M6iDG5HoQ3W8E0-45" target="WO_Ns-M6iDG5HoQ3W8E0-66">
          <mxGeometry relative="1" as="geometry" />
        </mxCell>
        <mxCell id="3oSIHU47qyLx5KesuJEi-41" value="yes" style="edgeLabel;html=1;align=center;verticalAlign=middle;resizable=0;points=[];fontColor=#009900;" vertex="1" connectable="0" parent="3oSIHU47qyLx5KesuJEi-18">
          <mxGeometry x="-0.0563" y="2" relative="1" as="geometry">
            <mxPoint x="-2" y="-3" as="offset" />
          </mxGeometry>
        </mxCell>
        <mxCell id="3oSIHU47qyLx5KesuJEi-25" value="" style="edgeStyle=orthogonalEdgeStyle;rounded=0;orthogonalLoop=1;jettySize=auto;html=1;strokeColor=#FF0000;" edge="1" parent="1" source="WO_Ns-M6iDG5HoQ3W8E0-45" target="3oSIHU47qyLx5KesuJEi-24">
          <mxGeometry relative="1" as="geometry" />
        </mxCell>
        <mxCell id="3oSIHU47qyLx5KesuJEi-40" value="no" style="edgeLabel;html=1;align=center;verticalAlign=middle;resizable=0;points=[];fontColor=#FF0000;" vertex="1" connectable="0" parent="3oSIHU47qyLx5KesuJEi-25">
          <mxGeometry x="-0.2513" y="-1" relative="1" as="geometry">
            <mxPoint x="5" y="-1" as="offset" />
          </mxGeometry>
        </mxCell>
        <mxCell id="WO_Ns-M6iDG5HoQ3W8E0-45" value="is&lt;br&gt;opcode ==&lt;br&gt;instruction&lt;br&gt;?" style="rhombus;whiteSpace=wrap;html=1;fillColor=#ffe6cc;strokeColor=#d79b00;" parent="1" vertex="1">
          <mxGeometry x="360" y="880" width="80" height="80" as="geometry" />
        </mxCell>
        <mxCell id="WO_Ns-M6iDG5HoQ3W8E0-59" value="" style="edgeStyle=orthogonalEdgeStyle;rounded=0;orthogonalLoop=1;jettySize=auto;html=1;" parent="1" source="WO_Ns-M6iDG5HoQ3W8E0-53" target="WO_Ns-M6iDG5HoQ3W8E0-54" edge="1">
          <mxGeometry relative="1" as="geometry" />
        </mxCell>
        <mxCell id="WO_Ns-M6iDG5HoQ3W8E0-53" value="close file" style="rounded=1;whiteSpace=wrap;html=1;absoluteArcSize=1;arcSize=14;strokeWidth=1;fillColor=#dae8fc;strokeColor=#6c8ebf;" parent="1" vertex="1">
          <mxGeometry x="280" y="1200" width="240" height="40" as="geometry" />
        </mxCell>
        <mxCell id="WO_Ns-M6iDG5HoQ3W8E0-58" value="" style="edgeStyle=orthogonalEdgeStyle;rounded=0;orthogonalLoop=1;jettySize=auto;html=1;strokeColor=#009900;" parent="1" source="WO_Ns-M6iDG5HoQ3W8E0-54" target="WO_Ns-M6iDG5HoQ3W8E0-55" edge="1">
          <mxGeometry relative="1" as="geometry" />
        </mxCell>
        <mxCell id="WO_Ns-M6iDG5HoQ3W8E0-63" value="yes" style="edgeLabel;html=1;align=center;verticalAlign=middle;resizable=0;points=[];fontColor=#009900;" parent="WO_Ns-M6iDG5HoQ3W8E0-58" vertex="1" connectable="0">
          <mxGeometry x="-0.2448" y="2" relative="1" as="geometry">
            <mxPoint x="-2" as="offset" />
          </mxGeometry>
        </mxCell>
        <mxCell id="WO_Ns-M6iDG5HoQ3W8E0-61" value="" style="edgeStyle=orthogonalEdgeStyle;rounded=0;orthogonalLoop=1;jettySize=auto;html=1;strokeColor=#FF0000;" parent="1" source="WO_Ns-M6iDG5HoQ3W8E0-54" target="WO_Ns-M6iDG5HoQ3W8E0-56" edge="1">
          <mxGeometry relative="1" as="geometry" />
        </mxCell>
        <mxCell id="WO_Ns-M6iDG5HoQ3W8E0-62" value="no" style="edgeLabel;html=1;align=center;verticalAlign=middle;resizable=0;points=[];fontColor=#FF0000;" parent="WO_Ns-M6iDG5HoQ3W8E0-61" vertex="1" connectable="0">
          <mxGeometry x="-0.2534" y="-1" relative="1" as="geometry">
            <mxPoint x="-5" y="1" as="offset" />
          </mxGeometry>
        </mxCell>
        <mxCell id="WO_Ns-M6iDG5HoQ3W8E0-54" value="is&lt;br&gt;opcode ==&lt;br&gt;NULL&lt;br&gt;?" style="rhombus;whiteSpace=wrap;html=1;fillColor=#ffe6cc;strokeColor=#d79b00;" parent="1" vertex="1">
          <mxGeometry x="360" y="1280" width="80" height="80" as="geometry" />
        </mxCell>
        <mxCell id="3oSIHU47qyLx5KesuJEi-29" style="edgeStyle=orthogonalEdgeStyle;rounded=0;orthogonalLoop=1;jettySize=auto;html=1;entryX=0.75;entryY=1;entryDx=0;entryDy=0;" edge="1" parent="1" source="WO_Ns-M6iDG5HoQ3W8E0-55" target="WO_Ns-M6iDG5HoQ3W8E0-12">
          <mxGeometry relative="1" as="geometry" />
        </mxCell>
        <mxCell id="WO_Ns-M6iDG5HoQ3W8E0-55" value="free stack" style="rounded=1;whiteSpace=wrap;html=1;absoluteArcSize=1;arcSize=14;strokeWidth=1;fillColor=#dae8fc;strokeColor=#6c8ebf;" parent="1" vertex="1">
          <mxGeometry x="280" y="1400" width="240" height="40" as="geometry" />
        </mxCell>
        <mxCell id="WO_Ns-M6iDG5HoQ3W8E0-83" style="edgeStyle=orthogonalEdgeStyle;rounded=0;orthogonalLoop=1;jettySize=auto;html=1;entryX=0;entryY=0.5;entryDx=0;entryDy=0;" parent="1" source="WO_Ns-M6iDG5HoQ3W8E0-56" target="WO_Ns-M6iDG5HoQ3W8E0-55" edge="1">
          <mxGeometry relative="1" as="geometry">
            <Array as="points">
              <mxPoint x="160" y="1420" />
            </Array>
          </mxGeometry>
        </mxCell>
        <mxCell id="WO_Ns-M6iDG5HoQ3W8E0-56" value="free opcode" style="rounded=1;whiteSpace=wrap;html=1;absoluteArcSize=1;arcSize=14;strokeWidth=1;fillColor=#dae8fc;strokeColor=#6c8ebf;" parent="1" vertex="1">
          <mxGeometry x="40" y="1300" width="240" height="40" as="geometry" />
        </mxCell>
        <mxCell id="3oSIHU47qyLx5KesuJEi-19" value="" style="edgeStyle=orthogonalEdgeStyle;rounded=0;orthogonalLoop=1;jettySize=auto;html=1;" edge="1" parent="1" source="WO_Ns-M6iDG5HoQ3W8E0-66" target="WO_Ns-M6iDG5HoQ3W8E0-80">
          <mxGeometry relative="1" as="geometry" />
        </mxCell>
        <mxCell id="WO_Ns-M6iDG5HoQ3W8E0-66" value="- find appropriate function -&lt;br&gt;- execute the function -" style="rounded=1;whiteSpace=wrap;html=1;absoluteArcSize=1;arcSize=14;strokeWidth=1;fillColor=#dae8fc;strokeColor=#6c8ebf;" parent="1" vertex="1">
          <mxGeometry x="280" y="1000" width="240" height="40" as="geometry" />
        </mxCell>
        <mxCell id="3oSIHU47qyLx5KesuJEi-22" value="" style="edgeStyle=orthogonalEdgeStyle;rounded=0;orthogonalLoop=1;jettySize=auto;html=1;strokeColor=#009900;" edge="1" parent="1" source="WO_Ns-M6iDG5HoQ3W8E0-80" target="WO_Ns-M6iDG5HoQ3W8E0-53">
          <mxGeometry relative="1" as="geometry" />
        </mxCell>
        <mxCell id="3oSIHU47qyLx5KesuJEi-30" value="yes" style="edgeLabel;html=1;align=center;verticalAlign=middle;resizable=0;points=[];fontColor=#009900;" vertex="1" connectable="0" parent="3oSIHU47qyLx5KesuJEi-22">
          <mxGeometry x="-0.3796" y="1" relative="1" as="geometry">
            <mxPoint x="-2" y="3" as="offset" />
          </mxGeometry>
        </mxCell>
        <mxCell id="3oSIHU47qyLx5KesuJEi-23" style="edgeStyle=orthogonalEdgeStyle;rounded=0;orthogonalLoop=1;jettySize=auto;html=1;entryX=0;entryY=0.5;entryDx=0;entryDy=0;strokeColor=#FF0000;" edge="1" parent="1" source="WO_Ns-M6iDG5HoQ3W8E0-80" target="WO_Ns-M6iDG5HoQ3W8E0-25">
          <mxGeometry relative="1" as="geometry">
            <Array as="points">
              <mxPoint x="200" y="1120" />
              <mxPoint x="200" y="620" />
            </Array>
          </mxGeometry>
        </mxCell>
        <mxCell id="3oSIHU47qyLx5KesuJEi-31" value="no" style="edgeLabel;html=1;align=center;verticalAlign=middle;resizable=0;points=[];fontColor=#FF0000;" vertex="1" connectable="0" parent="3oSIHU47qyLx5KesuJEi-23">
          <mxGeometry x="-0.8109" y="2" relative="1" as="geometry">
            <mxPoint x="-6" y="-3" as="offset" />
          </mxGeometry>
        </mxCell>
        <mxCell id="WO_Ns-M6iDG5HoQ3W8E0-80" value="is&lt;br&gt;file&lt;br&gt;== EOF&lt;br&gt;?" style="rhombus;whiteSpace=wrap;html=1;fillColor=#ffe6cc;strokeColor=#d79b00;direction=south;" parent="1" vertex="1">
          <mxGeometry x="360" y="1080" width="80" height="80" as="geometry" />
        </mxCell>
        <mxCell id="3oSIHU47qyLx5KesuJEi-10" value="" style="edgeStyle=orthogonalEdgeStyle;rounded=0;orthogonalLoop=1;jettySize=auto;html=1;" edge="1" parent="1" source="3oSIHU47qyLx5KesuJEi-8" target="WO_Ns-M6iDG5HoQ3W8E0-2">
          <mxGeometry relative="1" as="geometry" />
        </mxCell>
        <mxCell id="3oSIHU47qyLx5KesuJEi-8" value="int main(int argc, char *argv[])" style="rounded=1;whiteSpace=wrap;html=1;absoluteArcSize=1;arcSize=14;strokeWidth=1;fillColor=#dae8fc;strokeColor=#6c8ebf;" vertex="1" parent="1">
          <mxGeometry x="280" y="120" width="240" height="40" as="geometry" />
        </mxCell>
        <mxCell id="3oSIHU47qyLx5KesuJEi-27" style="edgeStyle=orthogonalEdgeStyle;rounded=0;orthogonalLoop=1;jettySize=auto;html=1;entryX=0.25;entryY=1;entryDx=0;entryDy=0;" edge="1" parent="1" source="3oSIHU47qyLx5KesuJEi-13" target="WO_Ns-M6iDG5HoQ3W8E0-12">
          <mxGeometry relative="1" as="geometry" />
        </mxCell>
        <mxCell id="3oSIHU47qyLx5KesuJEi-13" value="Error message: &quot;Error : can&#39;t open file &amp;lt;file&amp;gt;&quot;" style="rounded=1;whiteSpace=wrap;html=1;absoluteArcSize=1;arcSize=14;strokeWidth=1;fillColor=#dae8fc;strokeColor=#6c8ebf;" vertex="1" parent="1">
          <mxGeometry x="520" y="500" width="280" height="40" as="geometry" />
        </mxCell>
        <mxCell id="3oSIHU47qyLx5KesuJEi-28" style="edgeStyle=orthogonalEdgeStyle;rounded=0;orthogonalLoop=1;jettySize=auto;html=1;entryX=0.5;entryY=1;entryDx=0;entryDy=0;" edge="1" parent="1" source="3oSIHU47qyLx5KesuJEi-24" target="WO_Ns-M6iDG5HoQ3W8E0-12">
          <mxGeometry relative="1" as="geometry">
            <Array as="points">
              <mxPoint x="720" y="580" />
              <mxPoint x="900" y="580" />
            </Array>
          </mxGeometry>
        </mxCell>
        <mxCell id="3oSIHU47qyLx5KesuJEi-24" value="Error message: &quot;L&amp;lt;line_number&amp;gt;: unknown instruction &amp;lt;opcode&amp;gt;&quot;" style="rounded=1;whiteSpace=wrap;html=1;absoluteArcSize=1;arcSize=14;strokeWidth=1;fillColor=#dae8fc;strokeColor=#6c8ebf;" vertex="1" parent="1">
          <mxGeometry x="520" y="900" width="400" height="40" as="geometry" />
        </mxCell>
      </root>
    </mxGraphModel>
  </diagram>
</mxfile>
